<svg width="10" height="8" viewBox="0 0 10 8" fill="none" xmlns="http://www.w3.org/2000/svg">
<path d="M4.16667 7.125C4.16667 7.47042 3.88667 7.75 3.54167 7.75C3.19667 7.75 2.91667 7.47042 2.91667 7.125C2.91667 6.78 3.19667 6.5 3.54167 6.5C3.88667 6.5 4.16667 6.78 4.16667 7.125ZM5.625 6.5C5.28 6.5 5 6.77958 5 7.125C5 7.47042 5.28 7.75 5.625 7.75C5.97 7.75 6.25 7.47042 6.25 7.125C6.25 6.78 5.97 6.5 5.625 6.5ZM8.25208 0.25L6.82208 5.25H2.47708L1.25333 2.33333H5.90417L5.31583 4.41667H6.18167L7.00542 1.5H0L1.92292 6.08333H7.43917L8.88667 1.08333H9.69042L10 0.25H8.25208Z" fill="white"/>
</svg>
